<?xml version="1.0" standalone="no"?>
<!DOCTYPE svg PUBLIC "-//W3C//DTD SVG 20010904//EN"
 "http://www.w3.org/TR/2001/REC-SVG-20010904/DTD/svg10.dtd">
<svg version="1.0" xmlns="http://www.w3.org/2000/svg"
 width="1200.000000pt" height="1200.000000pt" viewBox="0 0 1200.000000 1200.000000"
 preserveAspectRatio="xMidYMid meet">

<g transform="translate(0.000000,1200.000000) scale(0.100000,-0.100000)"
fill="#FFF" stroke="none">
<path d="M0 6000 l0 -6000 6000 0 6000 0 0 6000 0 6000 -6000 0 -6000 0 0
-6000z m6415 5235 c1128 -91 2150 -520 3025 -1269 138 -118 431 -412 554 -556
718 -839 1161 -1915 1243 -3015 10 -139 10 -635 0 -780 -65 -928 -402 -1871
-941 -2635 -313 -444 -737 -878 -1167 -1197 -796 -589 -1748 -945 -2730 -1020
-134 -10 -675 -10 -804 0 -888 70 -1728 359 -2483 853 -305 200 -548 399 -822
674 -471 470 -816 970 -1086 1573 -252 562 -397 1151 -445 1806 -11 152 -8
669 5 746 2 17 7 64 10 105 12 140 57 424 96 600 180 804 510 1501 1019 2145
137 175 214 260 405 451 498 497 1022 847 1696 1134 496 211 1072 348 1640
389 176 12 606 10 785 -4z"/>
<path d="M7250 7199 c-57 -11 -129 -56 -157 -98 -13 -19 -28 -60 -35 -92 l-12
-58 -65 -3 -66 -3 0 -57 -1 -58 68 0 68 0 0 -185 0 -184 -67 -3 -68 -3 0 -55
0 -55 203 -3 202 -2 0 60 0 60 -70 0 -70 0 0 185 0 185 120 0 120 0 0 60 0 60
-121 0 -121 0 7 37 c16 85 47 106 156 107 l79 1 0 58 0 57 -62 -1 c-35 -1 -83
-5 -108 -10z"/>
<path d="M3031 7168 c-82 -258 -251 -809 -251 -818 0 -7 23 -10 66 -8 l67 3
30 103 30 103 146 -3 145 -3 30 -102 29 -103 70 0 c51 0 68 3 65 13 -3 6 -63
200 -134 429 l-129 418 -77 0 -76 0 -11 -32z m143 -321 c25 -86 46 -162 46
-167 0 -6 -42 -10 -106 -10 -81 0 -105 3 -101 13 2 6 26 85 52 175 27 89 52
159 55 155 4 -5 28 -79 54 -166z"/>
<path d="M5320 7140 l0 -60 65 0 65 0 0 -310 0 -310 -65 0 -65 0 0 -60 0 -60
202 2 202 3 -1 48 c-1 26 -2 52 -2 57 -1 6 -32 10 -71 10 l-70 0 0 370 0 370
-130 0 -130 0 0 -60z"/>
<path d="M7750 7075 l0 -125 -70 0 -70 0 0 -60 0 -60 70 0 70 0 0 -148 c0
-214 27 -284 127 -333 61 -30 170 -32 223 -5 58 30 99 77 115 130 8 27 15 51
15 52 0 1 -17 5 -37 9 -21 3 -48 9 -60 12 -17 4 -22 -1 -28 -26 -17 -79 -124
-108 -187 -52 l-33 29 -3 166 -4 166 131 0 131 0 0 60 0 60 -130 0 -130 0 0
125 0 125 -65 0 -65 0 0 -125z"/>
<path d="M8445 6773 l0 -428 68 -3 67 -3 0 174 c0 187 10 239 53 285 48 52
132 69 182 36 39 -25 45 -64 45 -285 l0 -209 65 0 65 0 0 218 c0 249 -10 304
-64 358 -54 54 -162 67 -236 29 -36 -19 -76 -64 -94 -105 -8 -19 -16 -30 -16
-25 0 6 0 94 0 198 l1 187 -68 0 -68 0 0 -427z"/>
<path d="M3828 6960 c-66 -11 -136 -49 -167 -89 -22 -29 -26 -45 -26 -97 0
-112 52 -151 250 -189 157 -30 180 -40 180 -80 0 -43 -48 -65 -140 -65 -95 1
-165 19 -256 68 -7 3 -59 -84 -59 -98 0 -10 104 -56 155 -68 116 -30 256 -22
336 18 131 67 140 242 15 307 -16 8 -92 28 -168 44 -140 28 -188 47 -188 74 0
22 40 54 77 61 61 11 185 -1 236 -24 l47 -21 25 49 25 50 -41 21 c-81 41 -198
56 -301 39z"/>
<path d="M4643 6960 c-93 -20 -174 -85 -215 -175 -18 -40 -23 -67 -23 -140 0
-78 4 -97 28 -147 33 -67 80 -111 157 -146 106 -50 290 -30 374 40 l36 30 -32
41 c-17 23 -33 43 -34 45 -1 2 -18 -8 -39 -22 -108 -74 -273 -57 -329 33 -12
20 -25 46 -28 59 l-6 22 260 0 260 0 -7 53 c-16 117 -61 202 -137 258 -65 46
-178 68 -265 49z m162 -129 c46 -21 69 -44 84 -84 l11 -27 -181 0 -180 0 6 23
c27 87 162 133 260 88z"/>
<path d="M6243 6960 c-93 -20 -174 -85 -215 -175 -18 -40 -23 -67 -23 -140 0
-78 4 -97 28 -147 33 -67 80 -111 157 -146 106 -50 290 -30 374 40 l36 30 -32
41 c-17 23 -33 43 -34 45 -1 2 -18 -8 -39 -22 -108 -74 -273 -57 -329 33 -12
20 -25 46 -28 59 l-6 22 260 0 260 0 -7 53 c-16 117 -61 202 -137 258 -65 46
-178 68 -265 49z m162 -129 c46 -21 69 -44 84 -84 l11 -27 -181 0 -180 0 6 23
c27 87 162 133 260 88z"/>
<path d="M5138 5561 c-32 -29 -33 -31 -36 -125 l-4 -96 902 0 902 0 -4 96 c-3
94 -4 96 -36 125 l-32 29 -830 0 -830 0 -32 -29z"/>
<path d="M5100 4650 c0 -466 3 -619 12 -628 19 -19 1761 -17 1777 2 8 9 10
182 9 627 l-3 614 -897 0 -898 0 0 -615z m685 203 l125 -128 -127 -123 c-102
-98 -133 -122 -153 -120 -17 2 -26 10 -28 25 -2 16 23 46 99 121 l103 100
-103 106 c-91 93 -101 107 -91 126 21 38 47 22 175 -107z m629 -309 c22 -9 20
-51 -3 -64 -12 -6 -111 -10 -251 -10 -236 0 -270 5 -270 38 0 40 16 42 266 42
133 0 249 -3 258 -6z"/>
</g>
</svg>
